<svg width="24" height="24" viewBox="0 0 24 24" fill="none" xmlns="http://www.w3.org/2000/svg">
    <mask id="crdf6kqbwa" style="mask-type:alpha" maskUnits="userSpaceOnUse" x="0" y="0" width="24" height="24">
        <path fill="#D9D9D9" d="M0 0h24v24H0z"/>
    </mask>
    <g mask="url(#crdf6kqbwa)">
        <path d="m12 13.158 3.07 3.071c.16.16.35.244.57.25a.777.777 0 0 0 .588-.25.801.801 0 0 0 .26-.579.802.802 0 0 0-.26-.579l-3.071-3.07 3.071-3.072c.16-.16.244-.35.25-.57a.777.777 0 0 0-.25-.588.802.802 0 0 0-.579-.26.802.802 0 0 0-.579.26L12 10.842l-3.072-3.07a.814.814 0 0 0-.57-.25.777.777 0 0 0-.588.25.802.802 0 0 0-.26.578c0 .213.087.406.26.58L10.842 12 7.77 15.071a.814.814 0 0 0-.25.57.777.777 0 0 0 .25.588c.173.173.366.26.58.26a.802.802 0 0 0 .578-.26L12 13.158zm.003 8.642a9.518 9.518 0 0 1-3.823-.77 9.938 9.938 0 0 1-3.11-2.099 9.928 9.928 0 0 1-2.1-3.106 9.5 9.5 0 0 1-.77-3.821c0-1.362.256-2.64.77-3.836a9.9 9.9 0 0 1 2.098-3.121 9.755 9.755 0 0 1 3.107-2.088 9.635 9.635 0 0 1 3.82-.759c1.362 0 2.64.253 3.836.759a9.728 9.728 0 0 1 3.122 2.085 9.718 9.718 0 0 1 2.087 3.12 9.725 9.725 0 0 1 .76 3.833 9.652 9.652 0 0 1-.76 3.823 9.763 9.763 0 0 1-2.085 3.109 9.888 9.888 0 0 1-3.119 2.1 9.588 9.588 0 0 1-3.833.771z" fill="#C3C9CE"/>
    </g>
</svg>
