<svg width="34" height="31" viewBox="0 0 34 31" fill="none" xmlns="http://www.w3.org/2000/svg">
<path id="Vector" d="M24.0737 0C20.5652 0 18.04 2.34512 17.0084 4.11271C16.9224 4.25855 16.7881 4.32856 16.6484 4.32856C16.5087 4.32856 16.3744 4.25855 16.2885 4.11271C15.2569 2.34512 12.7263 0 9.22318 0C4.57567 0 0.143066 2.64264 0.143066 11.1889C0.143066 19.7352 11.0338 27.8556 15.3858 30.5741C15.7834 30.825 16.2186 30.9767 16.6431 31C17.0675 30.9767 17.5027 30.825 17.9003 30.5741C22.2523 27.8556 33.1431 19.9277 33.1431 11.1889C33.1431 2.45013 28.7105 0 24.063 0H24.0737Z" fill="#C4282D"/>
</svg>
