<svg width="24" height="25" viewBox="0 0 24 25" fill="none" xmlns="http://www.w3.org/2000/svg">
<path d="M12.5856 8.47889L12.5844 8.48077C12.4589 8.69137 12.2398 8.8152 12.0023 8.8152C11.7648 8.8152 11.5457 8.69137 11.4201 8.48077L11.419 8.47889L11.419 8.47889C11.0431 7.84217 10.1122 7 8.85217 7C7.95623 7 7.13815 7.25071 6.54233 7.85357C5.94701 8.45591 5.5 9.48423 5.5 11.1921C5.5 12.782 6.53688 14.4071 7.90143 15.8267C9.24916 17.2289 10.8289 18.34 11.7293 18.896L11.7312 18.8971C11.8285 18.9578 11.922 18.9892 12 18.9984C12.078 18.9892 12.1715 18.9578 12.2688 18.8971L12.2707 18.896C13.1743 18.338 14.7533 17.2468 16.0998 15.8558C17.4615 14.449 18.5 12.8234 18.5 11.1921C18.5 9.44055 18.0514 8.41564 17.4601 7.82578C16.8681 7.23511 16.0523 7 15.1478 7V6.5C13.6618 6.50201 12.5922 7.48419 12.155 8.22469C12.1185 8.28585 12.0615 8.3152 12.0023 8.3152C11.943 8.3152 11.886 8.28585 11.8496 8.22469C11.4119 7.48344 10.3383 6.5 8.85217 6.5C6.8805 6.5 5 7.6082 5 11.1921C5 14.7761 9.62033 18.1814 11.4666 19.3214L12.5856 8.47889ZM12.5856 8.47889C12.9616 7.84198 13.8903 7 15.1524 7V6.5L12.5856 8.47889Z" stroke="#C4282D"/>
</svg>
