<svg width="25" height="25" viewBox="0 0 25 25" fill="none" xmlns="http://www.w3.org/2000/svg">
<path d="M12.2499 17.4313L10.7499 18.9313C10.0868 19.5943 9.18758 19.9667 8.24994 19.9667C7.3123 19.9667 6.41304 19.5943 5.74994 18.9313C5.08701 18.2682 4.7146 17.369 4.7146 16.4313C4.7146 15.4937 5.08701 14.5944 5.74994 13.9313L8.74994 10.9313C9.41304 10.2684 10.3123 9.896 11.2499 9.896C12.1876 9.896 13.0868 10.2684 13.7499 10.9313" stroke="#FAFAFA" stroke-width="2" stroke-linecap="round"/>
<path d="M12.25 7.43134L13.75 5.93134C14.4131 5.26841 15.3124 4.896 16.25 4.896C17.1876 4.896 18.0869 5.26841 18.75 5.93134C19.4129 6.59444 19.7853 7.49369 19.7853 8.43134C19.7853 9.36898 19.4129 10.2682 18.75 10.9313L15.75 13.9313C15.0869 14.5943 14.1876 14.9667 13.25 14.9667C12.3124 14.9667 11.4131 14.5943 10.75 13.9313" stroke="#FAFAFA" stroke-width="2" stroke-linecap="round"/>
</svg>
